<svg xmlns="http://www.w3.org/2000/svg" xmlns:xlink="http://www.w3.org/1999/xlink" version="1.1" id="Layer_1" x="0px" y="0px" width="283.465px" height="283.465px" viewBox="-18.427 -65.198 283.465 283.465" enable-background="new -18.427 -65.198 283.465 283.465" xml:space="preserve">
<g>
	<path fill="#36434F" d="M10.379-26.006h225.853c5.288,0,9.613,4.327,9.613,9.614v185.853c0,5.287-4.325,9.615-9.613,9.615H10.379   c-5.287-0.002-9.614-4.328-9.614-9.615V-16.392C0.765-21.679,5.092-26.006,10.379-26.006z"/>
	<path fill="#FFFFFF" d="M19.993,15.652h206.628c3.524,0,6.408,2.883,6.408,6.408v137.787c0,3.525-2.884,6.41-6.408,6.41H19.993   c-3.524,0-6.408-2.885-6.408-6.41V22.06C13.584,18.535,16.468,15.652,19.993,15.652z"/>
	<path fill="#FFFFFF" d="M84.081-11.586h142.54c3.524,0,6.408,2.884,6.408,6.409c0,3.526-2.884,6.41-6.408,6.41H84.081   c-3.525,0-6.409-2.884-6.409-6.41C77.671-8.702,80.555-11.586,84.081-11.586z"/>
	<path fill="#D1D4D1" d="M19.993-11.586c-3.524,0-6.408,2.884-6.408,6.409c0,3.526,2.884,6.41,6.408,6.41   c3.525,0,6.408-2.884,6.408-6.41C26.401-8.702,23.518-11.586,19.993-11.586z M39.218-11.586c-3.524,0-6.409,2.884-6.409,6.409   c0,3.526,2.885,6.41,6.409,6.41s6.408-2.884,6.408-6.41C45.626-8.702,42.743-11.586,39.218-11.586z M58.445-11.586   c-3.526,0-6.409,2.884-6.409,6.409c0,3.526,2.883,6.41,6.409,6.41c3.524,0,6.409-2.884,6.409-6.41   C64.854-8.702,61.968-11.586,58.445-11.586z"/>
	<path fill="#ECF0F1" d="M77.671,15.652H19.993c-3.524,0-6.408,2.883-6.408,6.408v137.787c0,3.525,2.884,6.41,6.408,6.41h57.679   V15.652z"/>
	<g>
		<path fill="#374df1" d="M64.479,52.435H27.141c-2.713,0-4.912-2.2-4.912-4.913s2.199-4.913,4.912-4.913h37.338    c2.714,0,4.913,2.2,4.913,4.913S67.193,52.435,64.479,52.435z"/>
	</g>
	<g>
		<path fill="#B7BBBD" d="M66.734,68.9H24.887c-1.469,0-2.658-1.266-2.658-2.827s1.189-2.827,2.658-2.827h41.847    c1.468,0,2.658,1.266,2.658,2.827S68.202,68.9,66.734,68.9z"/>
		<path fill="#B7BBBD" d="M66.734,81.342H24.887c-1.469,0-2.658-1.266-2.658-2.828c0-1.561,1.189-2.827,2.658-2.827h41.847    c1.468,0,2.658,1.266,2.658,2.827C69.392,80.076,68.202,81.342,66.734,81.342z"/>
		<path fill="#B7BBBD" d="M66.734,93.783H24.887c-1.469,0-2.658-1.266-2.658-2.828c0-1.561,1.189-2.826,2.658-2.826h41.847    c1.468,0,2.658,1.266,2.658,2.826C69.392,92.517,68.202,93.783,66.734,93.783z"/>
		<path fill="#B7BBBD" d="M66.734,106.222H24.887c-1.469,0-2.658-1.266-2.658-2.826c0-1.562,1.189-2.828,2.658-2.828h41.847    c1.468,0,2.658,1.266,2.658,2.828C69.392,104.957,68.202,106.222,66.734,106.222z"/>
		<path fill="#B7BBBD" d="M60.708,118.664H24.887c-1.469,0-2.658-1.266-2.658-2.826s1.189-2.828,2.658-2.828h35.821    c1.468,0,2.657,1.268,2.657,2.828S62.176,118.664,60.708,118.664z"/>
	</g>
	<path fill="#91E0E8" d="M101.715,149.777c0,0.748-0.611,1.361-1.359,1.361h-7.478c-0.746,0-1.358-0.613-1.358-1.361V93.703   c0-0.748,0.612-1.359,1.358-1.359h7.478c0.748,0,1.359,0.611,1.359,1.359V149.777z"/>
	<path fill="#91E0E8" d="M119.023,149.777c0,0.748-0.612,1.361-1.358,1.361h-7.478c-0.746,0-1.359-0.613-1.359-1.361v-41.803   c0-0.746,0.613-1.359,1.359-1.359h7.478c0.746,0,1.358,0.613,1.358,1.359V149.777z"/>
	<path fill="#91E0E8" d="M136.331,149.777c0,0.748-0.612,1.361-1.361,1.361h-7.475c-0.748,0-1.359-0.613-1.359-1.361v-34.326   c0-0.748,0.611-1.359,1.359-1.359h7.475c0.749,0,1.361,0.611,1.361,1.359V149.777z"/>
	<path fill="#68BF83" d="M153.638,149.777c0,0.748-0.613,1.361-1.361,1.361h-7.475c-0.749,0-1.359-0.613-1.359-1.361v-48.598   c0-0.75,0.61-1.359,1.359-1.359h7.475c0.748,0,1.361,0.609,1.361,1.359V149.777z"/>
	<path fill="#68BF83" d="M170.945,149.777c0,0.748-0.609,1.361-1.358,1.361h-7.475c-0.749,0-1.361-0.613-1.361-1.361v-38.404   c0-0.748,0.612-1.357,1.361-1.357h7.475c0.749,0,1.358,0.609,1.358,1.357V149.777z"/>
	<path fill="#68BF83" d="M188.251,149.777c0,0.748-0.609,1.361-1.358,1.361h-7.475c-0.749,0-1.361-0.613-1.361-1.361v-30.246   c0-0.75,0.612-1.361,1.361-1.361h7.475c0.749,0,1.358,0.611,1.358,1.361V149.777z"/>
	<path fill="#374df1" d="M205.559,149.777c0,0.748-0.613,1.361-1.358,1.361h-7.479c-0.745,0-1.358-0.613-1.358-1.361v-47.238   c0-0.748,0.613-1.359,1.358-1.359h7.479c0.745,0,1.358,0.611,1.358,1.359V149.777z"/>
	<path fill="#374df1" d="M222.866,149.777c0,0.748-0.612,1.361-1.357,1.361h-7.479c-0.745,0-1.358-0.613-1.358-1.361V93.703   c0-0.748,0.613-1.359,1.358-1.359h7.479c0.745,0,1.357,0.611,1.357,1.359V149.777z"/>
	<rect x="88.579" y="30.134" fill="#ECF0F1" width="65.06" height="44.351"/>
	<rect x="160.75" y="30.134" fill="#D1D4D1" width="62.115" height="44.351"/>
</g>
</svg>
