<svg xmlns="http://www.w3.org/2000/svg" xmlns:xlink="http://www.w3.org/1999/xlink" version="1.1" id="Layer_1" x="0px" y="0px" width="283.465px" height="283.465px" viewBox="-18.427 -65.198 283.465 283.465" enable-background="new -18.427 -65.198 283.465 283.465" xml:space="preserve">
<path fill="#CCD0D2" d="M92.965,142.505h63.82v29.991h-63.82V142.505z"/>
<path fill="#E4E7E7" d="M85.527,172.496h78.698c4.078,0,7.438,3.36,7.438,7.438c0,4.079-3.359,7.438-7.438,7.438H85.527  c-4.078,0-7.438-3.358-7.438-7.438C78.089,175.856,81.449,172.496,85.527,172.496z"/>
<path fill="#36434F" d="M14.268-33.605h217.377c6.239,0,11.278,5.038,11.278,11.277v151.397c0,6.238-239.933,6.238-239.933,0  V-22.328C2.99-28.567,8.03-33.605,14.268-33.605z"/>
<path fill="#ECF0F1" d="M14.268-22.328h217.377v127.403H14.268V-22.328z"/>
<path fill="#B7BBBD" d="M92.965,142.505h63.82v11.276h-63.82V142.505z"/>
<path fill="#E4E7E7" d="M2.99,131.468c0,6.238,5.04,11.277,11.278,11.277h217.377c6.239,0,11.278-5.039,11.278-11.277v-14.875H2.99  V131.468z"/>
<g>
	<path fill="#B7BBBD" d="M51.137-12.633H190.09c2.785,0,5.063,2.278,5.063,5.063v97.886c0,2.785-2.278,5.064-5.063,5.064H51.137   c-2.784-0.002-5.063-2.279-5.063-5.064V-7.57C46.074-10.354,48.353-12.633,51.137-12.633z"/>
	<path fill="#FFFFFF" d="M56.201,9.308h128.828c1.856,0,3.375,1.519,3.375,3.375v72.571c0,1.857-1.519,3.375-3.375,3.375H56.201   c-1.856,0-3.375-1.518-3.375-3.375V12.683C52.826,10.826,54.344,9.308,56.201,9.308z"/>
	<path fill="#FFFFFF" d="M89.955-5.038h95.074c1.856,0,3.375,1.519,3.375,3.375c0,1.857-1.519,3.376-3.375,3.376H89.955   c-1.856,0-3.376-1.519-3.376-3.376C86.579-3.519,88.098-5.038,89.955-5.038z"/>
	<path fill="#36434F" d="M56.201-5.038c-1.856,0-3.375,1.519-3.375,3.375c0,1.857,1.519,3.376,3.375,3.376s3.375-1.519,3.375-3.376   C59.576-3.519,58.057-5.038,56.201-5.038z M66.327-5.038c-1.856,0-3.376,1.519-3.376,3.375c0,1.857,1.52,3.376,3.376,3.376   s3.375-1.519,3.375-3.376C69.702-3.519,68.183-5.038,66.327-5.038z M76.453-5.038c-1.857,0-3.376,1.519-3.376,3.375   c0,1.857,1.519,3.376,3.376,3.376c1.856,0,3.376-1.519,3.376-3.376C79.829-3.519,78.308-5.038,76.453-5.038z"/>
</g>
<path fill="#E4E7E7" d="M200.121,142.745V78.197h-5.458c-8.284,0-15,6.716-15,15v49.548H200.121z"/>
<g>
	<path fill="#36434F" d="M243.411,188.212h-51.319c-3.831,0-6.938-3.107-6.938-6.937V76.985c0-3.829,3.106-6.936,6.938-6.936h51.317   c3.831,0,6.938,3.107,6.938,6.936v104.288C250.347,185.104,247.24,188.212,243.411,188.212z"/>
	<rect x="185.154" y="82.272" fill="#E4E7E7" width="65.193" height="81.491"/>
	<circle fill="#262B35" cx="217.75" cy="175.987" r="6.112"/>
	<path fill="#262B35" d="M217.75,78.197h-8.148c-1.127,0-2.037-0.91-2.037-2.036c0-1.128,0.91-2.037,2.037-2.037h8.148   c1.127,0,2.037,0.909,2.037,2.037C219.787,77.287,218.876,78.197,217.75,78.197z"/>
	<path fill="#262B35" d="M225.899,78.197h-2.037c-1.126,0-2.035-0.91-2.035-2.036c0-1.128,0.909-2.037,2.035-2.037h2.037   c1.127,0,2.038,0.909,2.038,2.037C227.937,77.287,227.026,78.197,225.899,78.197z"/>
</g>
<path fill="#36434F" d="M153.445,29.795c-0.394-0.491-0.988-0.776-1.616-0.776H99.446c-0.628,0-1.223,0.287-1.615,0.776  c-0.393,0.492-0.541,1.134-0.403,1.748l4.747,21.114c0.252,1.116,1.359,1.816,2.474,1.565c1.115-0.25,1.815-1.357,1.565-2.473  l-1.945-8.652h10.189l0.755,9.274c0.088,1.082,0.993,1.902,2.06,1.902c0.057,0,0.113-0.002,0.17-0.008  c1.14-0.092,1.988-1.091,1.896-2.231l-0.728-8.938h6.745v9.106c0,1.142,0.927,2.07,2.069,2.07c1.144,0,2.069-0.928,2.069-2.07  v-9.106h6.746l-0.727,8.938c-0.094,1.14,0.756,2.139,1.895,2.231c0.058,0.006,0.114,0.008,0.17,0.008  c1.067,0,1.973-0.82,2.061-1.902l0.754-9.274h6.614l-1.968,8.752c-0.25,1.116,0.449,2.223,1.564,2.474  c0.153,0.034,0.306,0.051,0.456,0.051c0.948,0,1.802-0.653,2.019-1.616l4.77-21.216C153.986,30.929,153.836,30.286,153.445,29.795z   M103.337,38.957l-1.304-5.799h11.616l0.471,5.799H103.337z M118.274,38.957l-0.471-5.799h7.553v5.799H118.274z M129.495,38.957  v-5.799h7.554l-0.473,5.799H129.495z M140.729,38.957l0.472-5.799h8.04l-1.303,5.799H140.729z"/>
<path fill="#36434F" d="M118.773,67.634c0,3.949-3.201,7.151-7.151,7.151s-7.152-3.202-7.152-7.151c0-3.95,3.202-7.152,7.152-7.152  S118.773,63.684,118.773,67.634z"/>
<path fill="#36434F" d="M148.092,67.634c0,3.949-3.202,7.151-7.151,7.151c-3.951,0-7.152-3.202-7.152-7.151  c0-3.95,3.201-7.152,7.152-7.152C144.89,60.482,148.092,63.684,148.092,67.634z"/>
<path fill="#374df1" d="M146.151,60.482h-41.682c-1.936,0-3.613-1.343-4.038-3.231l-5.68-25.254  c-0.283-1.263-1.386-2.146-2.681-2.146h-7.734c-2.287,0-4.14-1.853-4.14-4.138c0-2.287,1.853-4.14,4.14-4.14h7.734  c5.194,0,9.618,3.539,10.758,8.607l4.952,22.023h38.369c2.286,0,4.139,1.853,4.139,4.139S148.436,60.482,146.151,60.482z"/>
<g>
	<path fill="#36434F" d="M239.961,115.181c-0.248-0.309-0.622-0.488-1.018-0.488h-32.978c-0.396,0-0.77,0.18-1.017,0.488   c-0.247,0.311-0.341,0.715-0.254,1.101l2.988,13.292c0.158,0.703,0.855,1.144,1.558,0.986c0.702-0.158,1.143-0.855,0.985-1.557   l-1.225-5.447h6.415l0.475,5.838c0.056,0.682,0.625,1.197,1.297,1.197c0.035,0,0.071,0,0.106-0.004   c0.718-0.059,1.252-0.687,1.194-1.404l-0.458-5.627h4.246v5.732c0,0.72,0.584,1.303,1.303,1.303c0.721,0,1.303-0.583,1.303-1.303   v-5.732h4.247l-0.457,5.627c-0.06,0.718,0.476,1.346,1.192,1.404c0.036,0.004,0.072,0.004,0.107,0.004   c0.672,0,1.241-0.516,1.297-1.197l0.475-5.838h4.164l-1.238,5.51c-0.158,0.703,0.282,1.399,0.984,1.559   c0.097,0.021,0.192,0.031,0.287,0.031c0.597,0,1.135-0.412,1.271-1.018l3.003-13.356   C240.302,115.896,240.208,115.492,239.961,115.181z M208.417,120.95l-0.821-3.651h7.313l0.296,3.651H208.417z M217.82,120.95   l-0.297-3.651h4.755v3.651H217.82z M224.883,120.95v-3.651h4.756l-0.298,3.651H224.883z M231.957,120.95l0.297-3.651h5.062   l-0.82,3.651H231.957z"/>
	<path fill="#36434F" d="M218.134,139.004c0,2.486-2.016,4.502-4.503,4.502c-2.486,0-4.503-2.016-4.503-4.502   s2.017-4.502,4.503-4.502C216.119,134.502,218.134,136.517,218.134,139.004z"/>
	<path fill="#36434F" d="M236.592,139.004c0,2.486-2.017,4.502-4.503,4.502c-2.487,0-4.503-2.016-4.503-4.502   s2.016-4.502,4.503-4.502C234.576,134.502,236.592,136.517,236.592,139.004z"/>
	<path fill="#374df1" d="M235.37,134.502h-26.241c-1.218,0-2.274-0.846-2.542-2.035l-3.575-15.898   c-0.179-0.795-0.872-1.352-1.688-1.352h-4.869c-1.44,0-2.606-1.166-2.606-2.605s1.166-2.605,2.606-2.605h4.869   c3.27,0,6.055,2.228,6.772,5.418l3.117,13.865h24.155c1.439,0,2.605,1.167,2.605,2.605   C237.974,133.334,236.808,134.502,235.37,134.502z"/>
</g>
</svg>
