<svg xmlns="http://www.w3.org/2000/svg" xmlns:xlink="http://www.w3.org/1999/xlink" version="1.1" id="Layer_1" x="0px" y="0px" width="283.465px" height="283.465px" viewBox="-18.427 -65.198 283.465 283.465" enable-background="new -18.427 -65.198 283.465 283.465" xml:space="preserve">
<path fill="#CCD0D2" d="M92.965,142.505h63.82v29.991h-63.82V142.505z"/>
<path fill="#E4E7E7" d="M85.527,172.496h78.698c4.078,0,7.438,3.36,7.438,7.438c0,4.079-3.359,7.438-7.438,7.438H85.527  c-4.078,0-7.438-3.358-7.438-7.438C78.089,175.856,81.449,172.496,85.527,172.496z"/>
<path fill="#36434F" d="M14.268-33.605h217.377c6.239,0,11.278,5.038,11.278,11.277v151.397c0,6.238-239.933,6.238-239.933,0  V-22.328C2.99-28.567,8.03-33.605,14.268-33.605z"/>
<path fill="#B7BBBD" d="M14.268-22.328h217.377v127.403H14.268V-22.328z"/>
<path fill="#B7BBBD" d="M92.965,142.505h63.82v11.276h-63.82V142.505z"/>
<path fill="#E4E7E7" d="M2.99,131.468c0,6.238,5.04,11.277,11.278,11.277h217.377c6.239,0,11.278-5.039,11.278-11.277v-14.875H2.99  V131.468z"/>
<g>
	<rect x="55.996" y="-12.2" fill="#ECF0F1" width="137.762" height="107.148"/>
	<path fill="#36434F" d="M140.183,84.744c-1.41,0-2.551-1.141-2.551-2.552v-7.653c0-1.411,1.141-2.551,2.551-2.551   c1.412,0,2.553,1.14,2.553,2.551v7.653C142.736,83.603,141.595,84.744,140.183,84.744z"/>
	<path fill="#68BF83" d="M150.388,84.744c-1.41,0-2.551-1.141-2.551-2.552V64.335c0-1.411,1.141-2.552,2.551-2.552   s2.551,1.141,2.551,2.552v17.857C152.939,83.603,151.798,84.744,150.388,84.744z"/>
	<path fill="#36434F" d="M160.593,84.744c-1.41,0-2.551-1.141-2.551-2.552V69.436c0-1.41,1.141-2.551,2.551-2.551   s2.551,1.141,2.551,2.551v12.756C163.144,83.603,162.003,84.744,160.593,84.744z"/>
	<path fill="#374df1" d="M170.798,84.744c-1.412,0-2.553-1.141-2.553-2.552V51.579c0-1.411,1.141-2.552,2.553-2.552   c1.41,0,2.551,1.141,2.551,2.552v30.613C173.349,83.603,172.208,84.744,170.798,84.744z"/>
	<path fill="#36434F" d="M181.001,84.744c-1.41,0-2.551-1.141-2.551-2.552V61.783c0-1.411,1.141-2.551,2.551-2.551   c1.412,0,2.553,1.14,2.553,2.551v20.409C183.554,83.603,182.414,84.744,181.001,84.744z"/>
	<path fill="#D1D4D1" d="M99.365,71.988H73.853c-1.41,0-2.551-1.141-2.551-2.552c0-1.41,1.141-2.551,2.551-2.551h25.512   c1.411,0,2.552,1.141,2.552,2.551C101.917,70.847,100.776,71.988,99.365,71.988z"/>
	<path fill="#D1D4D1" d="M112.121,82.192H73.853c-1.41,0-2.551-1.14-2.551-2.551s1.141-2.552,2.551-2.552h38.268   c1.411,0,2.552,1.141,2.552,2.552S113.532,82.192,112.121,82.192z"/>
	<circle fill="#374df1" cx="98.089" cy="27.343" r="26.787"/>
	<path fill="#D1D4D1" d="M96.85,0.583c-0.013,0.014-0.022,0.023-0.036,0.036v27.904c0,0.052,0.041,0.095,0.095,0.095h27.904   c0.013-0.013,0.022-0.022,0.036-0.036C125.56,12.808,112.624-0.128,96.85,0.583z"/>
	<path fill="#D1D4D1" d="M168.246,18.413h-20.408c-1.41,0-2.551-1.14-2.551-2.551s1.141-2.551,2.551-2.551h20.408   c1.412,0,2.553,1.14,2.553,2.551S169.658,18.413,168.246,18.413z"/>
	<path fill="#D1D4D1" d="M181.001,18.413c-0.662,0-1.328-0.28-1.811-0.739c-0.461-0.484-0.74-1.148-0.74-1.812   s0.279-1.329,0.74-1.812c0.943-0.943,2.68-0.943,3.623,0c0.459,0.482,0.74,1.148,0.74,1.812s-0.281,1.327-0.74,1.812   C182.33,18.133,181.666,18.413,181.001,18.413z"/>
	<path fill="#D1D4D1" d="M181.001,5.658h-7.652c-1.41,0-2.551-1.141-2.551-2.552s1.141-2.551,2.551-2.551h7.652   c1.412,0,2.553,1.14,2.553,2.551S182.414,5.658,181.001,5.658z"/>
	<path fill="#D1D4D1" d="M152.939,5.658h-5.102c-1.41,0-2.551-1.141-2.551-2.552s1.141-2.551,2.551-2.551h5.102   c1.412,0,2.551,1.14,2.551,2.551S154.351,5.658,152.939,5.658z"/>
	<path fill="#D1D4D1" d="M163.144,5.658c-0.664,0-1.328-0.281-1.811-0.74c-0.463-0.484-0.74-1.148-0.74-1.812   s0.277-1.329,0.74-1.812c0.943-0.943,2.678-0.943,3.621,0c0.461,0.482,0.74,1.12,0.74,1.812c0,0.663-0.279,1.327-0.74,1.812   C164.47,5.377,163.808,5.658,163.144,5.658z"/>
</g>
</svg>
