<svg xmlns="http://www.w3.org/2000/svg" xmlns:xlink="http://www.w3.org/1999/xlink" version="1.1" id="Layer_1" x="0px" y="0px" width="283.465px" height="283.465px" viewBox="-18.427 -65.198 283.465 283.465" enable-background="new -18.427 -65.198 283.465 283.465" xml:space="preserve">
<path fill="#CCD0D2" d="M89.965,142.505h63.82v29.991h-63.82V142.505z"/>
<path fill="#E4E7E7" d="M82.527,172.496h78.698c4.078,0,7.438,3.36,7.438,7.438c0,4.079-3.359,7.438-7.438,7.438H82.527  c-4.078,0-7.438-3.358-7.438-7.438C75.089,175.856,78.449,172.496,82.527,172.496z"/>
<path fill="#36434F" d="M11.268-33.605h217.377c6.239,0,11.278,5.038,11.278,11.277v151.397c0,6.238-239.933,6.238-239.933,0  V-22.328C-0.01-28.567,5.03-33.605,11.268-33.605z"/>
<path fill="#ECF0F1" d="M11.268-22.328h217.377v127.403H11.268V-22.328z"/>
<path fill="#B7BBBD" d="M89.965,142.505h63.82v11.276h-63.82V142.505z"/>
<path fill="#E4E7E7" d="M-0.01,131.468c0,6.238,5.04,11.277,11.278,11.277h217.377c6.239,0,11.278-5.039,11.278-11.277v-14.875  H-0.01V131.468z"/>
<g>
	<path fill="#B7BBBD" d="M53.829-14.083h138.953c2.785,0,5.063,2.279,5.063,5.063v97.886c0,2.785-2.278,5.064-5.063,5.064H53.829   c-2.784-0.002-5.063-2.279-5.063-5.064V-9.02C48.765-11.804,51.044-14.083,53.829-14.083z"/>
	<path fill="#FFFFFF" d="M58.892,7.858H187.72c1.856,0,3.375,1.518,3.375,3.375v72.57c0,1.857-1.519,3.375-3.375,3.375H58.892   c-1.856,0-3.375-1.518-3.375-3.375v-72.57C55.517,9.376,57.036,7.858,58.892,7.858z"/>
	<path fill="#FFFFFF" d="M92.646-6.489h95.074c1.856,0,3.375,1.519,3.375,3.376c0,1.856-1.519,3.375-3.375,3.375H92.646   c-1.856,0-3.376-1.519-3.376-3.375C89.27-4.97,90.79-6.489,92.646-6.489z"/>
	<path fill="#36434F" d="M58.892-6.489c-1.856,0-3.375,1.519-3.375,3.376c0,1.856,1.519,3.375,3.375,3.375s3.375-1.519,3.375-3.375   C62.267-4.97,60.749-6.489,58.892-6.489z M69.018-6.489c-1.856,0-3.376,1.519-3.376,3.376c0,1.856,1.52,3.375,3.376,3.375   s3.375-1.519,3.375-3.375C72.393-4.97,70.875-6.489,69.018-6.489z M79.144-6.489c-1.857,0-3.376,1.519-3.376,3.376   c0,1.856,1.519,3.375,3.376,3.375c1.856,0,3.376-1.519,3.376-3.375C82.52-4.97,81-6.489,79.144-6.489z"/>
</g>
<path fill="#F3F3F3" d="M65.781,21.94h41.93c1.335,0,2.378,1.085,2.378,2.378v31.083c0,1.335-1.084,2.378-2.378,2.378h-41.93  c-1.335,0-2.378-1.085-2.378-2.378V24.318C63.403,23.025,64.488,21.94,65.781,21.94z"/>
<path fill="#91E0E8" d="M68.576,25.278H105c1.001,0,1.835,0.834,1.835,1.836v25.534c0,1.001-0.834,1.836-1.835,1.836H68.576  c-1.001,0-1.835-0.834-1.835-1.836V27.114C66.741,26.112,67.533,25.278,68.576,25.278z"/>
<path fill="#FFC033" d="M66.741,27.114v8.928c0.417,0.042,0.834,0.083,1.251,0.083c5.299,0,9.596-4.297,9.596-9.596  c0-0.417-0.042-0.834-0.083-1.251h-8.929C67.533,25.278,66.741,26.112,66.741,27.114z"/>
<path fill="#68BF83" d="M69.786,45.721c-1.043,0-2.086,0.083-3.045,0.208v6.717c0,1.001,0.834,1.836,1.835,1.836H82.47  c0.083-0.375,0.125-0.709,0.125-1.085C82.595,49.143,76.879,45.721,69.786,45.721z"/>
<path fill="#68BF83" d="M98.867,41.966c-11.432,0-20.736,5.591-20.861,12.517h26.953c1,0,1.835-0.834,1.835-1.836v-9.721  C104.332,42.342,101.662,41.966,98.867,41.966z"/>
<g>
	<g>
		<path fill="#374df1" d="M144.013,27.926H124.45c-1.422,0-2.574-1.152-2.574-2.574s1.152-2.574,2.574-2.574h19.563    c1.422,0,2.574,1.153,2.574,2.574S145.435,27.926,144.013,27.926z"/>
	</g>
	<g>
		<path fill="#B7BBBD" d="M147.466,35.235h-24.062c-0.845,0-1.529-0.728-1.529-1.625c0-0.898,0.684-1.626,1.529-1.626h24.062    c0.845,0,1.528,0.728,1.528,1.626C148.995,34.508,148.311,35.235,147.466,35.235z"/>
		<path fill="#B7BBBD" d="M147.466,42.389h-24.062c-0.845,0-1.529-0.728-1.529-1.626s0.684-1.625,1.529-1.625h24.062    c0.845,0,1.528,0.728,1.528,1.625S148.311,42.389,147.466,42.389z"/>
		<path fill="#B7BBBD" d="M147.466,49.543h-24.062c-0.845,0-1.529-0.728-1.529-1.625s0.684-1.626,1.529-1.626h24.062    c0.845,0,1.528,0.728,1.528,1.626S148.311,49.543,147.466,49.543z"/>
		<path fill="#B7BBBD" d="M147.466,56.697h-24.062c-0.845,0-1.529-0.728-1.529-1.626s0.684-1.625,1.529-1.625h24.062    c0.845,0,1.528,0.728,1.528,1.625S148.311,56.697,147.466,56.697z"/>
	</g>
	<g>
		<path fill="#B7BBBD" d="M180.308,35.235h-36.062c-0.844,0-1.528-0.728-1.528-1.625c0-0.898,0.685-1.626,1.528-1.626h36.062    c0.845,0,1.529,0.728,1.529,1.626C181.837,34.508,181.153,35.235,180.308,35.235z"/>
		<path fill="#B7BBBD" d="M180.308,42.389h-36.062c-0.844,0-1.528-0.728-1.528-1.626s0.685-1.625,1.528-1.625h36.062    c0.845,0,1.529,0.728,1.529,1.625S181.153,42.389,180.308,42.389z"/>
		<path fill="#B7BBBD" d="M180.308,49.543h-36.062c-0.844,0-1.528-0.728-1.528-1.625s0.685-1.626,1.528-1.626h36.062    c0.845,0,1.529,0.728,1.529,1.626S181.153,49.543,180.308,49.543z"/>
		<path fill="#B7BBBD" d="M180.308,56.697h-36.062c-0.844,0-1.528-0.728-1.528-1.626s0.685-1.625,1.528-1.625h36.062    c0.845,0,1.529,0.728,1.529,1.625S181.153,56.697,180.308,56.697z"/>
	</g>
</g>
</svg>
