<svg width="126" height="37" viewBox="0 0 126 37" fill="none" xmlns="http://www.w3.org/2000/svg"><g clip-path="url(#clip0_33_89)"><path fill-rule="evenodd" clip-rule="evenodd" d="M120.791 37H4.648C2.086 37 0 34.915 0 32.375V4.625C0 2.076 2.086 0 4.648 0H120.79c2.56 0 4.648 2.076 4.648 4.625v27.75c0 2.54-2.088 4.625-4.648 4.625z" fill="#000"/><path d="M66.082 12.24c-.838 0-1.544-.293-2.102-.87a2.96 2.96 0 0 1-.85-2.122c0-.842.286-1.555.85-2.12.556-.577 1.262-.87 2.1-.87.828 0 1.534.293 2.102.87.563.583.849 1.296.849 2.12-.01.844-.295 1.557-.85 2.12-.555.58-1.262.871-2.1.871zm-24.925 0a2.92 2.92 0 0 1-2.112-.859c-.577-.567-.87-1.284-.87-2.131 0-.847.294-1.564.87-2.131.57-.57 1.281-.859 2.112-.859.406 0 .8.081 1.18.245.37.16.673.376.897.641l.055.067-.625.614-.065-.076c-.353-.42-.826-.625-1.451-.625-.559 0-1.046.198-1.447.59-.404.394-.61.911-.61 1.536s.206 1.142.61 1.537c.401.392.888.59 1.447.59.595 0 1.096-.198 1.486-.59.23-.231.374-.554.424-.962h-2.005v-.863h2.866l.012.078c.02.146.041.296.041.434 0 .796-.24 1.44-.715 1.915-.54.563-1.246.848-2.1.848zm33.14-.123h-.884l-2.707-4.33.023.78v3.548h-.883V6.383h1.008l.028.044 2.545 4.078-.023-.777V6.383h.893v5.734zm-14.857 0h-.895V7.245h-1.553v-.862h4v.862h-1.554v4.872h.002zm-3.177 0h-.893V6.383h.893v5.734zm-5.02 0h-.893V7.245h-1.553v-.862h4v.862h-1.553v4.872zm-3.01-.009h-3.425V6.383h3.424v.862h-2.529V8.82h2.282v.853h-2.282v1.573h2.53v.863zm16.402-1.33c.4.398.884.599 1.447.599.579 0 1.052-.196 1.447-.6.392-.392.59-.906.59-1.527 0-.62-.198-1.137-.588-1.527-.4-.4-.886-.6-1.447-.6-.58 0-1.052.196-1.445.6-.392.392-.59.907-.59 1.527 0 .62.196 1.137.586 1.527z" fill="#fff"/><path fill-rule="evenodd" clip-rule="evenodd" d="M63.047 20.124c-2.18 0-3.948 1.654-3.948 3.935 0 2.26 1.779 3.935 3.948 3.935 2.18 0 3.949-1.665 3.949-3.935 0-2.281-1.768-3.935-3.949-3.935zm0 6.311c-1.193 0-2.22-.987-2.22-2.385 0-1.419 1.03-2.385 2.22-2.385 1.193 0 2.22.966 2.22 2.385.002 1.407-1.027 2.385-2.22 2.385zm-8.614-6.311c-2.181 0-3.949 1.654-3.949 3.935 0 2.26 1.78 3.935 3.949 3.935 2.18 0 3.948-1.665 3.948-3.935 0-2.281-1.77-3.935-3.948-3.935zm0 6.311c-1.193 0-2.22-.987-2.22-2.385 0-1.419 1.029-2.385 2.22-2.385 1.193 0 2.22.966 2.22 2.385 0 1.407-1.027 2.385-2.22 2.385zm-10.25-5.11v1.666h3.998c-.122.934-.431 1.624-.904 2.097-.586.586-1.491 1.223-3.086 1.223-2.457 0-4.38-1.984-4.38-4.44 0-2.457 1.923-4.441 4.38-4.441 1.327 0 2.294.523 3.012 1.192l1.181-1.18c-.996-.956-2.323-1.687-4.183-1.687-3.372 0-6.201 2.745-6.201 6.106 0 3.37 2.827 6.106 6.2 6.106 1.821 0 3.188-.595 4.267-1.716 1.101-1.1 1.45-2.653 1.45-3.906 0-.39-.03-.74-.093-1.038H44.18c.002-.002.002.019.002.019zm41.927 1.297c-.33-.883-1.327-2.507-3.372-2.507-2.026 0-3.71 1.594-3.71 3.935 0 2.21 1.666 3.935 3.906 3.935 1.8 0 2.848-1.1 3.28-1.746l-1.337-.895c-.442.657-1.059 1.089-1.933 1.089-.884 0-1.503-.401-1.913-1.193l5.263-2.18c0 .003-.184-.438-.184-.438zm-5.368 1.315c-.041-1.52 1.182-2.293 2.056-2.293.69 0 1.265.34 1.461.833l-3.517 1.46zm-4.276 3.813h1.729V16.189h-1.729V27.75zm-2.838-6.752h-.063c-.39-.463-1.13-.883-2.076-.883-1.964 0-3.773 1.728-3.773 3.947 0 2.21 1.8 3.916 3.773 3.916.934 0 1.686-.422 2.076-.895h.063v.566c0 1.501-.803 2.31-2.098 2.31-1.06 0-1.717-.76-1.984-1.397l-1.503.627c.432 1.038 1.583 2.323 3.485 2.323 2.026 0 3.743-1.192 3.743-4.101V20.35h-1.634v.648h-.01zm-1.985 5.437c-1.193 0-2.19-.996-2.19-2.373 0-1.39.997-2.395 2.19-2.395 1.182 0 2.098 1.017 2.098 2.395.011 1.377-.914 2.373-2.098 2.373zm22.56-10.246H90.07V27.75h1.728v-4.378h2.407c1.913 0 3.794-1.387 3.794-3.587s-1.874-3.596-3.796-3.596zm.05 5.568h-2.457V17.79h2.457c1.295 0 2.027 1.069 2.027 1.984 0 .907-.741 1.984-2.026 1.984zm10.673-1.654c-1.255 0-2.55.556-3.085 1.767l1.532.637c.33-.637.935-.854 1.574-.854.896 0 1.8.536 1.821 1.49v.123c-.309-.176-.988-.443-1.8-.443-1.655 0-3.332.904-3.332 2.6 0 1.552 1.357 2.549 2.868 2.549 1.161 0 1.8-.524 2.199-1.13h.063v.894h1.666v-4.429c0-2.062-1.533-3.204-3.506-3.204zm-.217 6.332c-.565 0-1.356-.277-1.356-.987 0-.895.987-1.234 1.83-1.234.761 0 1.121.164 1.573.39a2.08 2.08 0 0 1-2.047 1.831zm9.801-6.085l-1.985 5.015h-.062l-2.056-5.015h-1.86l3.085 7.01-1.758 3.896h1.8l4.747-10.906h-1.911zm-15.558 7.4h1.728V16.189h-1.728V27.75z" fill="#fff"/><path fill-rule="evenodd" clip-rule="evenodd" d="M9.655 6.969c-.267.288-.422.729-.422 1.305v20.454c0 .577.155 1.017.431 1.294l.072.062L21.2 18.624v-.255L9.727 6.906l-.072.063z" fill="url(#paint0_linear_33_89)"/><path fill-rule="evenodd" clip-rule="evenodd" d="M25.015 22.456l-3.824-3.822v-.268l3.824-3.822.083.05 4.523 2.57c1.295.73 1.295 1.933 0 2.672l-4.523 2.57-.083.05z" fill="url(#paint1_linear_33_89)"/><path fill-rule="evenodd" clip-rule="evenodd" d="M25.098 22.405L21.19 18.5 9.655 30.031c.423.453 1.13.503 1.922.063l13.52-7.689z" fill="url(#paint2_linear_33_89)"/><path fill-rule="evenodd" clip-rule="evenodd" d="M25.098 14.595l-13.52-7.677c-.792-.452-1.503-.39-1.923.062L21.191 18.5l3.907-3.905z" fill="url(#paint3_linear_33_89)"/><path opacity=".2" fill-rule="evenodd" clip-rule="evenodd" d="M25.015 22.322l-13.428 7.626c-.75.432-1.42.402-1.851.01l-.072.071.072.062c.431.39 1.1.422 1.85-.009l13.521-7.677-.092-.083z" fill="#000"/><path opacity=".12" fill-rule="evenodd" clip-rule="evenodd" d="M29.62 19.702l-4.617 2.62.083.083 4.523-2.57c.649-.369.967-.853.967-1.335-.039.443-.369.863-.955 1.202z" fill="#000"/><path opacity=".25" fill-rule="evenodd" clip-rule="evenodd" d="M11.578 7.052L29.62 17.298c.586.33.916.762.967 1.202 0-.482-.319-.966-.967-1.335L11.578 6.918c-1.295-.74-2.345-.122-2.345 1.356v.134c0-1.48 1.05-2.087 2.345-1.356z" fill="#fff"/></g><defs><linearGradient id="paint0_linear_33_89" x1="20.172" y1="8.054" x2="1.809" y2="12.948" gradientUnits="userSpaceOnUse"><stop stop-color="#00A0FF"/><stop offset=".007" stop-color="#00A1FF"/><stop offset=".26" stop-color="#00BEFF"/><stop offset=".512" stop-color="#00D2FF"/><stop offset=".76" stop-color="#00DFFF"/><stop offset="1" stop-color="#00E3FF"/></linearGradient><linearGradient id="paint1_linear_33_89" x1="31.309" y1="18.5" x2="8.918" y2="18.5" gradientUnits="userSpaceOnUse"><stop stop-color="#FFE000"/><stop offset=".409" stop-color="#FFBD00"/><stop offset=".775" stop-color="orange"/><stop offset="1" stop-color="#FF9C00"/></linearGradient><linearGradient id="paint2_linear_33_89" x1="22.974" y1="20.625" x2="8.24" y2="45.433" gradientUnits="userSpaceOnUse"><stop stop-color="#FF3A44"/><stop offset="1" stop-color="#C31162"/></linearGradient><linearGradient id="paint3_linear_33_89" x1="6.75" y1=".165" x2="13.324" y2="11.245" gradientUnits="userSpaceOnUse"><stop stop-color="#32A071"/><stop offset=".069" stop-color="#2DA771"/><stop offset=".476" stop-color="#15CF74"/><stop offset=".801" stop-color="#06E775"/><stop offset="1" stop-color="#00F076"/></linearGradient><clipPath id="clip0_33_89"><path fill="#fff" d="M0 0h125.439v37H0z"/></clipPath></defs></svg>