<svg width="122" height="40" viewBox="0 0 122 40" fill="none" xmlns="http://www.w3.org/2000/svg"><path d="M8.593 39.873c-.31 0-.614-.004-.922-.01a12.945 12.945 0 0 1-1.906-.167 6 6 0 0 1-1.689-.559 5.512 5.512 0 0 1-1.424-1.036 5.426 5.426 0 0 1-1.04-1.424 5.834 5.834 0 0 1-.554-1.69 12.657 12.657 0 0 1-.17-1.911c-.006-.215-.015-.931-.015-.931V8.592s.01-.705.015-.912c.008-.64.064-1.277.169-1.908.097-.59.284-1.162.554-1.695a5.674 5.674 0 0 1 4.15-3.022C6.394.95 7.033.895 7.673.887l.92-.012h104.779l.931.013a12.62 12.62 0 0 1 1.894.166c.593.1 1.167.289 1.704.558a5.702 5.702 0 0 1 2.462 2.468c.266.53.45 1.096.546 1.68.106.637.165 1.28.177 1.925.003.289.003.599.003.907.008.383.008.747.008 1.114v21.337c0 .37 0 .732-.008 1.097 0 .331 0 .635-.004.947-.012.634-.07 1.265-.174 1.89a5.84 5.84 0 0 1-.551 1.703c-.269.522-.618 1-1.035 1.413a5.536 5.536 0 0 1-1.427 1.042 5.982 5.982 0 0 1-1.701.56 12.79 12.79 0 0 1-1.905.167c-.299.007-.612.011-.915.011l-1.106.002-103.678-.002z" fill="#000"/><path d="M25.236 20.68a5.044 5.044 0 0 1 2.403-4.233 5.164 5.164 0 0 0-4.07-2.2c-1.712-.18-3.371 1.025-4.244 1.025-.89 0-2.232-1.007-3.679-.977a5.419 5.419 0 0 0-4.56 2.781c-1.972 3.414-.501 8.431 1.388 11.19.945 1.352 2.05 2.862 3.494 2.808 1.414-.059 1.943-.902 3.65-.902 1.69 0 2.186.902 3.66.868 1.518-.025 2.474-1.357 3.386-2.721a11.176 11.176 0 0 0 1.548-3.153 4.875 4.875 0 0 1-2.976-4.486zm-2.785-8.248a4.967 4.967 0 0 0 1.136-3.558 5.055 5.055 0 0 0-3.27 1.692 4.728 4.728 0 0 0-1.166 3.427 4.178 4.178 0 0 0 3.3-1.56zm20.661 15.221h-4.826l-1.159 3.422h-2.044l4.571-12.66h2.124l4.571 12.66H44.27l-1.158-3.422zm-4.326-1.579h3.826l-1.886-5.554h-.053l-1.887 5.554zm17.435.386c0 2.869-1.535 4.712-3.852 4.712a3.13 3.13 0 0 1-2.904-1.615h-.044v4.572h-1.895V21.845h1.834v1.535h.035a3.273 3.273 0 0 1 2.94-1.632c2.342 0 3.886 1.852 3.886 4.712zm-1.947 0c0-1.869-.966-3.097-2.44-3.097-1.447 0-2.421 1.254-2.421 3.097 0 1.86.974 3.106 2.421 3.106 1.474 0 2.44-1.22 2.44-3.106zm12.106 0c0 2.869-1.534 4.712-3.851 4.712a3.13 3.13 0 0 1-2.905-1.615h-.044v4.572h-1.894V21.845h1.834v1.535h.035a3.275 3.275 0 0 1 2.939-1.632c2.343 0 3.887 1.852 3.887 4.712zm-1.947 0c0-1.869-.965-3.097-2.439-3.097-1.448 0-2.421 1.254-2.421 3.097 0 1.86.973 3.106 2.421 3.106 1.474 0 2.44-1.22 2.44-3.106zm8.663 1.088c.14 1.255 1.36 2.08 3.026 2.08 1.597 0 2.746-.825 2.746-1.957 0-.983-.692-1.571-2.333-1.974l-1.641-.396c-2.325-.561-3.404-1.648-3.404-3.413 0-2.184 1.903-3.685 4.607-3.685 2.675 0 4.509 1.5 4.57 3.685h-1.912c-.114-1.263-1.159-2.026-2.685-2.026-1.527 0-2.571.772-2.571 1.895 0 .895.667 1.422 2.299 1.825l1.395.342c2.597.615 3.677 1.658 3.677 3.51 0 2.369-1.887 3.852-4.888 3.852-2.808 0-4.703-1.448-4.826-3.738h1.94zm11.863-7.888v2.184h1.755v1.5H84.96v5.09c0 .79.351 1.159 1.123 1.159a5.93 5.93 0 0 0 .623-.044v1.491c-.347.065-.7.094-1.052.088-1.869 0-2.598-.702-2.598-2.492v-5.291h-1.342v-1.5h1.342V19.66h1.904zm2.771 6.8c0-2.904 1.711-4.729 4.379-4.729 2.676 0 4.379 1.825 4.379 4.73 0 2.912-1.694 4.729-4.38 4.729-2.684 0-4.377-1.817-4.377-4.73zm6.827 0c0-1.992-.913-3.168-2.448-3.168-1.536 0-2.448 1.185-2.448 3.168 0 2 .912 3.168 2.448 3.168 1.535 0 2.448-1.167 2.448-3.168zm3.493-4.616h1.807v1.572h.044a2.203 2.203 0 0 1 2.22-1.668c.218 0 .436.023.649.07v1.773a2.646 2.646 0 0 0-.851-.115 1.906 1.906 0 0 0-1.891 1.311 1.909 1.909 0 0 0-.084.813v5.475H98.05v-9.23zm13.456 6.52c-.255 1.676-1.887 2.826-3.975 2.826-2.685 0-4.352-1.8-4.352-4.686 0-2.895 1.676-4.773 4.273-4.773 2.554 0 4.16 1.754 4.16 4.553v.65h-6.52v.114a2.41 2.41 0 0 0 .652 1.868 2.391 2.391 0 0 0 1.831.746 2.088 2.088 0 0 0 2.132-1.298h1.799zm-6.405-2.755h4.615a2.215 2.215 0 0 0-1.372-2.176 2.212 2.212 0 0 0-.892-.167 2.332 2.332 0 0 0-2.173 1.444 2.33 2.33 0 0 0-.178.9v-.001zM38.549 8.885a2.691 2.691 0 0 1 2.862 3.022c0 1.944-1.05 3.061-2.862 3.061H36.35V8.885h2.198zm-1.253 5.223h1.147a1.913 1.913 0 0 0 2.006-2.188 1.916 1.916 0 0 0-2.006-2.176h-1.147v4.364zm5.183-1.438a2.176 2.176 0 1 1 4.33 0 2.172 2.172 0 0 1-1.284 2.2 2.176 2.176 0 0 1-3.046-2.2zm3.398 0c0-.995-.447-1.576-1.232-1.576-.787 0-1.23.582-1.23 1.577 0 1.003.443 1.58 1.23 1.58.785 0 1.232-.581 1.232-1.58zm6.688 2.298h-.94l-.95-3.381h-.07l-.946 3.381h-.93l-1.266-4.59h.919l.822 3.502h.068l.944-3.503h.87l.943 3.503h.072l.818-3.503h.906l-1.26 4.591zm2.325-4.591h.872v.73h.067a1.375 1.375 0 0 1 1.37-.818 1.492 1.492 0 0 1 1.59 1.707v2.972h-.907v-2.745c0-.737-.32-1.104-.99-1.104a1.054 1.054 0 0 0-1.096 1.163v2.686h-.907v-4.59zm5.342-1.792h.906v6.383h-.906V8.585zm2.166 4.085a2.174 2.174 0 1 1 4.33 0 2.176 2.176 0 1 1-4.33 0zm3.398 0c0-.995-.447-1.576-1.232-1.576-.787 0-1.23.581-1.23 1.577 0 1.003.443 1.58 1.23 1.58.785 0 1.232-.581 1.232-1.58zm1.886 1c0-.827.616-1.303 1.708-1.37l1.243-.073v-.396c0-.485-.32-.758-.94-.758-.505 0-.856.185-.956.51h-.877c.092-.789.834-1.294 1.875-1.294 1.151 0 1.8.572 1.8 1.542v3.137h-.872v-.645h-.071a1.545 1.545 0 0 1-1.38.72 1.387 1.387 0 0 1-1.53-1.373zm2.951-.393v-.383l-1.12.071c-.633.043-.92.258-.92.662 0 .414.359.654.852.654a1.083 1.083 0 0 0 1.188-1.004zm2.093-.607c0-1.45.746-2.37 1.906-2.37a1.514 1.514 0 0 1 1.408.806h.067V8.585h.906v6.383h-.868v-.725h-.071a1.594 1.594 0 0 1-1.442.8c-1.168 0-1.906-.918-1.906-2.372zm.936 0c0 .974.46 1.56 1.227 1.56.764 0 1.235-.594 1.235-1.556 0-.956-.477-1.56-1.235-1.56-.763 0-1.227.59-1.227 1.556zm7.1 0a2.174 2.174 0 1 1 4.33 0 2.176 2.176 0 1 1-4.33 0zm3.398 0c0-.995-.447-1.576-1.231-1.576-.788 0-1.23.582-1.23 1.577 0 1.003.442 1.58 1.23 1.58.784 0 1.231-.581 1.231-1.58zm2.148-2.293h.872v.73h.068a1.375 1.375 0 0 1 1.37-.818 1.493 1.493 0 0 1 1.589 1.707v2.972h-.906v-2.745c0-.737-.32-1.104-.99-1.104a1.055 1.055 0 0 0-1.097 1.163v2.686h-.906v-4.59zm9.019-1.143v1.164h.994v.763h-.994v2.36c0 .482.198.692.649.692.115 0 .23-.007.345-.02v.754c-.162.03-.327.045-.492.046-1.008 0-1.41-.354-1.41-1.24v-2.592h-.728v-.763h.729V9.234h.907zm2.232-.649h.898v2.53h.072a1.413 1.413 0 0 1 1.4-.823 1.51 1.51 0 0 1 1.524 1.055c.067.212.086.436.057.657v2.964h-.907v-2.74c0-.734-.342-1.105-.982-1.105a1.072 1.072 0 0 0-1.156 1.164v2.681h-.906V8.585zm9.234 5.143a1.862 1.862 0 0 1-1.99 1.329 2.079 2.079 0 0 1-1.608-.694 2.078 2.078 0 0 1-.512-1.676 2.108 2.108 0 0 1 .511-1.682 2.11 2.11 0 0 1 1.605-.717c1.278 0 2.048.873 2.048 2.315v.316h-3.241v.05a1.203 1.203 0 0 0 .32.929 1.216 1.216 0 0 0 .902.387 1.1 1.1 0 0 0 1.093-.557h.872zm-3.187-1.48h2.318a1.097 1.097 0 0 0-.301-.844 1.11 1.11 0 0 0-.829-.345 1.175 1.175 0 0 0-1.188 1.19z" fill="#fff"/></svg>